<svg xmlns="http://www.w3.org/2000/svg" version="1.1" xmlns:xlink="http://www.w3.org/1999/xlink" width="2000" height="117" viewBox="0 0 2000 117"><svg xml:space="preserve" width="2000" height="117" data-version="2" data-id="lg_RGvofBxHQIOtQpR7W8" viewBox="0 0 592 117" x="0" y="0"><rect width="100%" height="100%" fill="transparent"></rect><path fill="#ff5e5e" d="M148.046 3.41q1.68 0 2.45 1.74.52 1.09.9 2.35.39 1.26.84 2.42l3.48 9.54q3.16 8.76 6.19 17.62 3.03 8.87 6.31 17.57.07.19.29.61.23.42.49.42.32 0 .51-.42.2-.42.26-.61.97-2.77 1.87-5.61.9-2.84 1.81-5.61 1.99-5.99 3.99-11.99 2-5.99 4-11.92l3.22-9.54q.39-1.16.77-2.42.39-1.25.84-2.35.77-1.8 2.52-1.8h13.59q.97 0 1.94.35.97.36.97 1.58 0 .71-.46 1.74-5.09 12.25-10.08 24.52-5 12.28-9.9 24.66l-9.79 24.62q-1.03 2.77-2.1 5.51-1.06 2.74-2.22 5.45-.26.58-.9 1.8-.65 1.23-1.55 1.23t-1.55-1.23q-.64-1.22-.9-1.8-1.16-2.71-2.19-5.45t-2.13-5.51l-8.7-21.91q-5.09-13.02-10.38-26.01-5.28-12.99-10.7-25.88-.45-1.03-.45-1.8 0-1.23.97-1.55.97-.32 1.87-.32Z"></path><rect width="74" height="91.46" x="-37" y="-45.73" fill="none" rx="0" ry="0" transform="translate(168.79 49.64)"></rect><path fill="#ff5e5e" d="M212.046 93.77q-2.65 0-2.65-2.71 0-3.54.1-7.05.1-3.52.16-7.06.13-7.41.19-14.83.07-7.41.07-14.82t-.07-14.82q-.06-7.42-.19-14.83-.06-3.54-.16-7.06-.1-3.51-.1-7.05 0-2.71 2.65-2.71h10.11q2.58 0 2.65 2.64.19 3.74.16 7.51-.03 3.77-.03 7.51.06 7.86.09 15.76.03 7.89.03 15.76v10.05q0 .77.59.77.25 0 .38-.06 6.45-1.8 12.47-4.54 6.03-2.74 10.61-7.25 4.57-4.52 6.51-11.41.32-1.1.9-1.71.58-.61 1.8-.61h11.6q1.1 0 1.87.45.78.45.78 1.67 0 .26-.13.91-2.13 8.7-7.51 14.56-5.38 5.87-12.67 10.57-.45.32-.45.65 0 .19 1.78 2.58 1.77 2.38 4.41 5.86 2.64 3.48 5.41 7.09 2.78 3.61 4.9 6.35 2.13 2.74 2.71 3.58.39.51.81 1.19.41.68.41 1.38 0 1.23-1.25 1.45-1.26.23-2.1.23h-11.08q-1.1 0-2-.97-1.23-1.29-2.39-2.74-1.16-1.45-2.32-2.86-3.35-4-6.67-8.09-3.32-4.1-6.73-8.03-.2-.32-.58-.32-.2 0-.32.06-2.78 1.04-5.61 1.87-2.84.84-5.61 1.87-.58.2-.58.78l-.19 15.79q0 2.64-2.65 2.64Z"></path><rect width="63.17" height="92.94" x="-31.59" y="-46.47" fill="none" rx="0" ry="0" transform="translate(241.48 47.8)"></rect><path fill="#ff5e5e" d="M304.966 6.11q0-2.7 2.64-2.7h28.94q7.16 0 14.09 1.54 6.93 1.55 12.6 5t9.02 9.15q3.35 5.71 3.35 14.02 0 2.32-.38 4.74-.39 2.41-1.1 4.67-2.45 7.73-7.99 12.41-5.54 4.67-12.8 6.73-7.25 2.06-14.72 2.06h-16.31q-.77 0-.77.78l-.2 26.68q0 2.58-2.64 2.58h-11.15q-2.64 0-2.64-2.71 0-3.48.13-6.99.13-3.51.19-6.99.19-14.7.19-29.52 0-13.86-.19-27.65-.06-3.42-.16-6.9-.1-3.48-.1-6.9m16.63 42.03h17.21q3.74 0 7.7-1 3.97-1 7.25-3.22 3.29-2.23 4.77-5.9.39-.97.71-2.19.32-1.23.32-2.26 0-.9-.32-2.16-.32-1.26-.64-2.16-1.49-3.67-4.61-5.93-3.13-2.25-6.96-3.32-3.84-1.06-7.51-1.06h-18.05q.07 7.28.1 14.6.03 7.31.03 14.6"></path><rect width="70.7" height="90.36" x="-35.35" y="-45.18" fill="none" rx="0" ry="0" transform="translate(340.76 49.09)"></rect><path fill="#ff5e5e" d="M391.006 35.31q2.45 0 2.64 2.39l.65 7.34q0 .07.13.94.13.87.45.87t.67-.71q.36-.71.42-.84 2.65-4.96 6.45-7.8 3.8-2.83 9.6-2.83 1.36 0 3.45.22 2.09.23 2.09 2.16 0 .97-.38 3.03-.39 2.06-.87 4.16-.49 2.09-.74 3.19-.26 1.09-.81 1.71-.55.61-1.84.61-.64 0-1.25-.1-.61-.09-1.32-.09-5.1 0-8.58 3.19-3.48 3.19-5.22 7.83-1.74 4.64-1.74 9.15v21.4q0 2.64-2.64 2.64h-9.99q-2.64 0-2.64-2.71 0-9.99.09-19.95.1-9.95.1-19.88V37.95q0-2.64 2.64-2.64Z"></path><rect width="38.02" height="59.1" x="-19.01" y="-29.55" fill="none" rx="0" ry="0" transform="translate(399.05 64.72)"></rect><path fill="#ff5e5e" d="M415.296 64.83q0-8.96 3.84-15.98 3.83-7.03 10.73-11.12 6.89-4.09 15.92-4.09 8.89 0 15.53 4.02 6.64 4.03 10.35 10.99 3.7 6.96 3.7 15.66 0 8.96-3.67 15.89-3.68 6.93-10.35 10.86-6.67 3.93-15.82 3.93-9.09 0-15.89-3.77-6.8-3.77-10.57-10.53-3.77-6.77-3.77-15.86m30.17-18.18q-4.9 0-8.19 2.62-3.29 2.61-4.96 6.67-1.68 4.06-1.68 8.5 0 4.19 1.77 8.06 1.78 3.87 5.06 6.32 3.29 2.45 7.8 2.45 4.9 0 8.16-2.49 3.25-2.48 4.89-6.41 1.65-3.93 1.65-8.38 0-4.32-1.65-8.28-1.64-3.96-4.86-6.51-3.22-2.55-7.99-2.55"></path><rect width="60.07" height="61.35" x="-30.04" y="-30.68" fill="none" rx="0" ry="0" transform="translate(445.83 64.81)"></rect><path fill="#ff5e5e" d="M510.556 63.09q0 .19 1.51 2.71 1.52 2.51 3.8 6.15 2.29 3.64 4.71 7.41 2.42 3.78 4.22 6.64 1.81 2.87 2.32 3.71.32.52.61 1.1.29.58.29 1.22 0 1.22-1.12 1.48-1.13.26-2.04.26h-12.37q-1.35 0-2.19-1.22-2.64-3.74-5-7.74-2.35-4-4.8-7.8-.39-.58-.64-.58-.26 0-1.49 2.13-1.22 2.13-2.8 5.09-1.58 2.97-2.9 5.48-1.32 2.51-1.84 3.29-.83 1.35-2.32 1.35h-9.02q-.84 0-2-.26-1.16-.26-1.16-1.48 0-.64.32-1.22.33-.58.58-1.1.46-.77 2.16-3.51 1.71-2.74 3.93-6.29 2.23-3.54 4.32-7.02 2.1-3.48 3.52-5.84 1.41-2.35 1.41-2.61 0-.45-1.67-3.12-1.68-2.68-4.09-6.45-2.42-3.77-4.87-7.6-2.45-3.84-4.13-6.67-1.67-2.84-1.67-3.55 0-1.22 1.16-1.48t2-.26h12.5q1.42 0 2.26 1.23.51.64 1.93 3.06 1.42 2.41 3.13 5.22 1.7 2.8 3.03 4.86 1.32 2.07 1.57 2.07.39 0 .71-.71 1.81-3.42 3.19-7.09 1.39-3.68 3.19-7.09.78-1.55 2.39-1.55h8.76q.91 0 2 .29 1.1.29 1.1 1.45 0 .71-1.45 3.42-1.45 2.7-3.61 6.35-2.16 3.64-4.35 7.21-2.19 3.58-3.64 6.13-1.45 2.54-1.45 2.93"></path><rect width="51.88" height="58.46" x="-25.94" y="-29.23" fill="none" rx="0" ry="0" transform="translate(502.58 65.04)"></rect><path fill="#ff5e5e" d="M541.356 115.17q-.9 0-1.94-.32-1.03-.33-1.03-1.55 0-.52.16-.97.17-.45.36-.9 2.45-5.61 5.06-11.15 2.61-5.54 5.06-11.15v-.58q-5.35-12.38-10.7-24.75-5.35-12.38-10.64-24.82-.45-1.03-.45-1.8 0-1.22 1-1.55 1-.32 1.9-.32h11.28q1.03 0 1.52.42.48.42.93 1.26 1.1 2.19 1.97 4.57.87 2.39 1.71 4.64 2.25 5.61 4.41 11.25t4.54 11.18q.13.2.33.55.19.36.45.36t.45-.33q.19-.32.26-.51 2.57-5.55 4.96-11.25 2.38-5.7 4.83-11.31.97-2.26 1.9-4.67.94-2.42 2.1-4.61.9-1.55 2.45-1.55h7.99q.97 0 1.93.32.97.33.97 1.55 0 .77-.45 1.8-4.7 11.48-9.57 22.89-4.87 11.4-9.64 22.88-1.99 4.83-4.03 9.63-2.03 4.8-4.09 9.57-1.03 2.39-2.03 4.84-1 2.45-2.09 4.77-.78 1.61-2.45 1.61Z"></path><rect width="57.88" height="79.86" x="-28.94" y="-39.93" fill="none" rx="0" ry="0" transform="translate(556.68 75.74)"></rect><path fill="#46484d" d="M101.447 56.62c-3.213 0-5.88 2.352-6.387 5.423h-2.132a3.19 3.19 0 0 1-2.47-1.164L87.006 56.7a5.676 5.676 0 0 0-4.387-2.065h-3.152v-8.258a5.205 5.205 0 0 0-5.2-5.198h-5.106v-1.206c0-.614.24-1.193.673-1.63l3.982-3.995a2.326 2.326 0 0 1 1.635-.679h5.957c.506 3.072 3.172 5.424 6.386 5.424a6.486 6.486 0 0 0 6.479-6.479 6.486 6.486 0 0 0-6.48-6.48c-3.212 0-5.879 2.352-6.385 5.425H75.45a4.449 4.449 0 0 0-3.13 1.298l-3.982 3.997a4.396 4.396 0 0 0-1.289 3.118v1.205h-4.394v-3.633a6.02 6.02 0 0 0-1.766-4.276l-5.922-5.942a6.097 6.097 0 0 0-4.29-1.781H41.02c-.507-3.072-3.173-5.425-6.387-5.425a6.486 6.486 0 0 0-6.479 6.48 6.486 6.486 0 0 0 6.48 6.48c3.212 0 5.88-2.353 6.386-5.424h9.659c1.04 0 2.06.422 2.794 1.16l5.922 5.943a3.92 3.92 0 0 1 1.15 2.785v3.633h-5.589a5.204 5.204 0 0 0-5.198 5.2v3.34H46.64a5.776 5.776 0 0 0-3.893 1.506l-5.71 5.192a5.798 5.798 0 0 0-1.893 4.281v12.155c-3.242.353-5.775 3.105-5.775 6.44a6.486 6.486 0 0 0 6.48 6.48 6.486 6.486 0 0 0 6.48-6.48c0-3.09-2.176-5.677-5.074-6.322V60.696c0-1.033.438-2.023 1.203-2.718l5.71-5.193a3.665 3.665 0 0 1 2.472-.955h3.118v13.86a5.203 5.203 0 0 0 5.198 5.197h7.127v11.612c-3.072.506-5.424 3.172-5.424 6.385a6.486 6.486 0 0 0 6.48 6.48 6.486 6.486 0 0 0 6.48-6.48c0-3.213-2.353-5.879-5.425-6.385V70.886h10.074a5.201 5.201 0 0 0 5.195-5.16c.09.025.179.056.277.056h1.506c.745 0 1.46.318 1.966.878l6.542 7.091a6.445 6.445 0 0 0-1.63 4.283 6.486 6.486 0 0 0 6.48 6.48 6.486 6.486 0 0 0 6.478-6.48 6.486 6.486 0 0 0-6.479-6.479 6.433 6.433 0 0 0-3.21.86l-6.62-7.179a4.767 4.767 0 0 0-3.527-1.565H79.74c-.097 0-.185.03-.274.055v-6.981h3.152c1.071 0 2.077.474 2.76 1.299l3.452 4.177a5.298 5.298 0 0 0 4.098 1.93h2.132c.507 3.073 3.173 5.425 6.387 5.425a6.486 6.486 0 0 0 6.479-6.48 6.485 6.485 0 0 0-6.48-6.477M87.795 28.246a4.374 4.374 0 0 1 4.368 4.369 4.373 4.373 0 0 1-4.368 4.368 4.37 4.37 0 0 1-4.36-4.276c.003-.032.02-.06.02-.092 0-.033-.017-.06-.02-.092a4.37 4.37 0 0 1 4.36-4.277m-53.16 2.724a4.373 4.373 0 0 1-4.369-4.369 4.374 4.374 0 0 1 4.368-4.369 4.374 4.374 0 0 1 4.37 4.37 4.374 4.374 0 0 1-4.37 4.368m5.586 48.32a4.373 4.373 0 0 1-4.369 4.368 4.374 4.374 0 0 1-4.37-4.368 4.374 4.374 0 0 1 4.37-4.37 4.374 4.374 0 0 1 4.369 4.37m27.29 9.593a4.375 4.375 0 0 1-4.37 4.369 4.374 4.374 0 0 1-4.37-4.37 4.374 4.374 0 0 1 4.37-4.368 4.374 4.374 0 0 1 4.37 4.369m31.464-10.848a4.374 4.374 0 0 1-4.369 4.37 4.374 4.374 0 0 1-4.369-4.37c0-1.253.538-2.377 1.386-3.173a1.025 1.025 0 0 0 .39-.22c.075-.07.122-.155.172-.24a4.342 4.342 0 0 1 2.42-.735 4.374 4.374 0 0 1 4.37 4.368M77.356 65.688a3.092 3.092 0 0 1-3.088 3.087h-19.31a3.092 3.092 0 0 1-3.088-3.087V46.376a3.092 3.092 0 0 1 3.087-3.088H74.27a3.092 3.092 0 0 1 3.088 3.088v19.312zm24.09 1.778a4.375 4.375 0 0 1-4.369-4.369 4.374 4.374 0 0 1 4.37-4.368 4.373 4.373 0 0 1 4.368 4.368 4.374 4.374 0 0 1-4.368 4.37"></path><path fill="#46484d" d="M56.388 47.863h3.167v3.167h-3.167zm6.607 0h3.166v3.167h-3.166zm0 6.586h3.166v3.166h-3.166zm6.67 0h3.167v3.166h-3.167zm-13.277 6.512h3.167v3.166h-3.167zm13.277 0h3.167v3.166h-3.167z"></path><path fill="#ff5e5e" d="M99.37 50.198c-4.098 0-7.5 3-8.146 6.918h-2.719a4.07 4.07 0 0 1-3.151-1.485L80.95 50.3a7.24 7.24 0 0 0-5.595-2.634h-4.02V37.134a6.64 6.64 0 0 0-6.632-6.631h-6.514v-1.538c0-.783.305-1.522.859-2.078l5.079-5.097a2.967 2.967 0 0 1 2.085-.865h7.598c.646 3.917 4.047 6.918 8.146 6.918a8.274 8.274 0 0 0 8.264-8.265 8.274 8.274 0 0 0-8.264-8.265c-4.098 0-7.5 3-8.146 6.92h-7.598a5.674 5.674 0 0 0-3.991 1.655l-5.081 5.098a5.607 5.607 0 0 0-1.644 3.978v1.537h-5.604v-4.635a7.679 7.679 0 0 0-2.254-5.453l-7.553-7.58a7.777 7.777 0 0 0-5.471-2.272h-12.32c-.647-3.918-4.047-6.919-8.146-6.919a8.274 8.274 0 0 0-8.265 8.266 8.274 8.274 0 0 0 8.265 8.264c4.098 0 7.5-3 8.146-6.918h12.32a5.06 5.06 0 0 1 3.565 1.48l7.553 7.58a5 5 0 0 1 1.468 3.552v4.635h-7.13a6.638 6.638 0 0 0-6.63 6.632v4.262h-3.978a7.368 7.368 0 0 0-4.965 1.92l-7.283 6.623a7.396 7.396 0 0 0-2.415 5.46v15.504c-4.135.45-7.366 3.96-7.366 8.215a8.274 8.274 0 0 0 8.266 8.264 8.274 8.274 0 0 0 8.264-8.264c0-3.942-2.775-7.241-6.471-8.064V55.398c0-1.318.558-2.58 1.534-3.466l7.283-6.625a4.675 4.675 0 0 1 3.153-1.218h3.978v17.678a6.637 6.637 0 0 0 6.63 6.63h9.091v14.81c-3.919.647-6.92 4.047-6.92 8.145a8.274 8.274 0 0 0 8.266 8.266 8.274 8.274 0 0 0 8.266-8.266c0-4.098-3-7.498-6.92-8.144V68.396h12.85a6.634 6.634 0 0 0 6.626-6.582c.116.032.229.071.354.071h1.921c.95 0 1.862.406 2.508 1.12l8.344 9.046a8.221 8.221 0 0 0-2.08 5.462 8.274 8.274 0 0 0 8.266 8.266 8.274 8.274 0 0 0 8.264-8.266 8.274 8.274 0 0 0-8.264-8.264 8.205 8.205 0 0 0-4.096 1.096l-8.444-9.156a6.08 6.08 0 0 0-4.498-1.996h-1.921c-.124 0-.236.039-.35.07v-8.905h4.021c1.366 0 2.65.604 3.52 1.657l4.404 5.328a6.758 6.758 0 0 0 5.227 2.462h2.72c.646 3.92 4.046 6.92 8.145 6.92a8.274 8.274 0 0 0 8.265-8.266 8.272 8.272 0 0 0-8.265-8.261M81.956 14.006a5.579 5.579 0 0 1 5.572 5.574 5.577 5.577 0 0 1-5.572 5.572 5.573 5.573 0 0 1-5.561-5.455c.004-.04.024-.076.024-.117 0-.042-.02-.077-.024-.117a5.573 5.573 0 0 1 5.56-5.457m-67.808 3.475a5.577 5.577 0 0 1-5.572-5.572 5.579 5.579 0 0 1 5.572-5.573 5.579 5.579 0 0 1 5.573 5.573 5.579 5.579 0 0 1-5.573 5.572m7.124 61.634a5.577 5.577 0 0 1-5.572 5.572 5.579 5.579 0 0 1-5.573-5.572 5.579 5.579 0 0 1 5.573-5.573 5.579 5.579 0 0 1 5.572 5.573M56.08 91.351a5.58 5.58 0 0 1-5.574 5.573 5.579 5.579 0 0 1-5.573-5.573 5.579 5.579 0 0 1 5.573-5.572 5.579 5.579 0 0 1 5.574 5.572m40.134-13.836a5.579 5.579 0 0 1-5.572 5.573 5.579 5.579 0 0 1-5.573-5.573c0-1.598.686-3.032 1.767-4.048a1.307 1.307 0 0 0 .497-.28c.097-.09.156-.198.22-.306a5.538 5.538 0 0 1 3.088-.938 5.579 5.579 0 0 1 5.573 5.572m-27.573-15.75a3.944 3.944 0 0 1-3.94 3.938h-24.63a3.944 3.944 0 0 1-3.938-3.937V37.133a3.944 3.944 0 0 1 3.938-3.94h24.632a3.944 3.944 0 0 1 3.94 3.94v24.633zm30.728 2.269a5.58 5.58 0 0 1-5.573-5.573 5.579 5.579 0 0 1 5.573-5.572 5.577 5.577 0 0 1 5.572 5.572 5.579 5.579 0 0 1-5.572 5.573"></path><path fill="#ff5e5e" d="M41.897 39.03h4.039v4.038h-4.039zm8.427 0h4.039v4.038h-4.039zm0 8.4h4.039v4.038h-4.039zm8.508 0h4.039v4.038h-4.039zm-16.935 8.306h4.039v4.039h-4.039zm16.935 0h4.039v4.039h-4.039z"></path></svg></svg>